<?xml version="1.0" encoding="UTF-8"?>
<!DOCTYPE svg PUBLIC "-//W3C//DTD SVG 1.1//EN" "http://www.w3.org/Graphics/SVG/1.1/DTD/svg11.dtd">
<svg xmlns="http://www.w3.org/2000/svg" version="1.1" width="1661px" height="1661px" style="shape-rendering:geometricPrecision; text-rendering:geometricPrecision; image-rendering:optimizeQuality; fill-rule:evenodd; clip-rule:evenodd" xmlns:xlink="http://www.w3.org/1999/xlink">
<g><path style="opacity:0.999" fill="#151719" d="M -0.5,-0.5 C 553.167,-0.5 1106.83,-0.5 1660.5,-0.5C 1660.5,553.167 1660.5,1106.83 1660.5,1660.5C 1106.83,1660.5 553.167,1660.5 -0.5,1660.5C -0.5,1106.83 -0.5,553.167 -0.5,-0.5 Z"/></g>
<g><path style="opacity:1" fill="#ea2528" d="M 940.5,463.5 C 941.451,462.081 941.784,460.415 941.5,458.5C 735.5,458.5 529.5,458.5 323.5,458.5C 405.863,363.434 508.529,300.934 631.5,271C 786.516,237.744 931.849,261.744 1067.5,343C 1212.89,436.817 1301.06,569.317 1332,740.5C 1356.38,920.634 1309.05,1078.63 1190,1214.5C 1090.66,1321.26 968.156,1383.09 822.5,1400C 643.843,1415.23 489.509,1361.9 359.5,1240C 346.799,1226.97 334.466,1213.63 322.5,1200C 394.517,1199.96 466.517,1199.29 538.5,1198C 623.846,1187.65 683.012,1142.81 716,1063.5C 727.744,1034.19 734.911,1003.86 737.5,972.5C 649.499,972.667 561.499,972.5 473.5,972C 439.04,968.302 408.707,955.302 382.5,933C 353.201,903.126 339.201,867.126 340.5,825C 339.533,766.9 365.2,725.567 417.5,701C 434.158,693.835 451.492,689.169 469.5,687C 559.844,686.95 650.178,686.283 740.5,685C 824.272,675.556 883.105,632.39 917,555.5C 929.539,526.008 937.373,495.342 940.5,463.5 Z"/></g>
<g><path style="opacity:1" fill="#4b1b1d" d="M 323.5,458.5 C 529.5,458.5 735.5,458.5 941.5,458.5C 941.784,460.415 941.451,462.081 940.5,463.5C 940.5,462.167 940.5,460.833 940.5,459.5C 734.666,459.833 528.999,459.5 323.5,458.5 Z"/></g>
</svg>
